<svg width="522" height="522" viewBox="0 0 522 522" fill="none" xmlns="http://www.w3.org/2000/svg">
<g filter="url(#filter0_d_1_2)">
<rect x="4" y="1.74431" width="512" height="512" transform="rotate(-0.195199 4 1.74431)" fill="white"/>
<rect x="4.5017" y="2.2426" width="511" height="511" transform="rotate(-0.195199 4.5017 2.2426)" stroke="black"/>
<rect x="89.4085" y="177.907" width="120" height="120" rx="8" fill="#FF7A00"/>
<rect x="113" y="201.67" width="64" height="64" rx="8" fill="white"/>
<rect x="129" y="217.67" width="32" height="32" fill="#111111"/>
<path d="M272.104 192.176L272.104 213.994L268.152 213.994L268.152 192.176L272.104 192.176ZM279.771 204.406L279.771 213.994L275.914 213.994L275.914 197.631L279.6 197.631L279.6 200.411L279.792 200.411C280.168 199.495 280.768 198.767 281.592 198.227C282.423 197.687 283.449 197.417 284.671 197.417C285.8 197.417 286.784 197.659 287.622 198.142C288.467 198.625 289.121 199.324 289.582 200.241C290.051 201.157 290.282 202.268 290.275 203.575L290.275 213.994L286.418 213.994L286.418 204.172C286.418 203.078 286.134 202.222 285.566 201.604C285.005 200.986 284.227 200.677 283.233 200.677C282.558 200.677 281.958 200.827 281.432 201.125C280.914 201.416 280.506 201.839 280.207 202.393C279.916 202.947 279.771 203.618 279.771 204.406ZM306.828 201.956L303.313 202.339C303.213 201.984 303.039 201.65 302.791 201.338C302.549 201.025 302.223 200.773 301.811 200.582C301.399 200.39 300.895 200.294 300.298 200.294C299.495 200.294 298.821 200.468 298.274 200.816C297.734 201.164 297.468 201.615 297.475 202.169C297.468 202.645 297.642 203.032 297.997 203.33C298.359 203.628 298.956 203.873 299.787 204.065L302.578 204.662C304.126 204.996 305.277 205.525 306.029 206.249C306.789 206.974 307.173 207.922 307.18 209.094C307.173 210.123 306.871 211.033 306.274 211.821C305.685 212.602 304.865 213.213 303.814 213.653C302.762 214.094 301.555 214.314 300.191 214.314C298.189 214.314 296.576 213.895 295.355 213.057C294.133 212.212 293.405 211.036 293.171 209.53L296.931 209.168C297.102 209.907 297.464 210.464 298.018 210.841C298.572 211.217 299.293 211.405 300.181 211.405C301.097 211.405 301.832 211.217 302.386 210.841C302.947 210.464 303.228 209.999 303.228 209.445C303.228 208.976 303.046 208.589 302.684 208.284C302.329 207.979 301.775 207.744 301.022 207.581L298.231 206.995C296.662 206.668 295.5 206.118 294.747 205.344C293.995 204.562 293.622 203.575 293.629 202.382C293.622 201.373 293.895 200.5 294.449 199.761C295.01 199.015 295.788 198.44 296.782 198.035C297.784 197.623 298.938 197.417 300.245 197.417C302.162 197.417 303.671 197.826 304.772 198.643C305.88 199.459 306.566 200.564 306.828 201.956ZM318.231 197.631L318.231 200.614L308.824 200.614L308.824 197.631L318.231 197.631ZM311.147 193.71L315.003 193.71L315.003 209.072C315.003 209.591 315.081 209.989 315.238 210.265C315.401 210.535 315.614 210.72 315.877 210.819C316.14 210.919 316.431 210.969 316.75 210.969C316.992 210.969 317.212 210.951 317.411 210.915C317.617 210.88 317.773 210.848 317.88 210.819L318.53 213.834C318.324 213.905 318.029 213.984 317.645 214.069C317.269 214.154 316.807 214.204 316.26 214.218C315.294 214.246 314.424 214.101 313.65 213.781C312.876 213.454 312.262 212.95 311.807 212.268C311.36 211.587 311.14 210.734 311.147 209.712L311.147 193.71ZM321.157 213.994L321.157 197.631L325.013 197.631L325.013 213.994L321.157 213.994ZM323.095 195.308C322.485 195.308 321.959 195.106 321.519 194.701C321.078 194.289 320.858 193.795 320.858 193.22C320.858 192.638 321.078 192.144 321.519 191.739C321.959 191.327 322.485 191.121 323.095 191.121C323.713 191.121 324.239 191.327 324.672 191.739C325.113 192.144 325.333 192.638 325.333 193.22C325.333 193.795 325.113 194.289 324.672 194.701C324.239 195.106 323.713 195.308 323.095 195.308ZM336.85 197.631L336.85 200.614L327.443 200.614L327.443 197.631L336.85 197.631ZM329.765 193.71L333.622 193.71L333.622 209.072C333.622 209.591 333.7 209.989 333.856 210.265C334.02 210.535 334.233 210.72 334.496 210.819C334.758 210.919 335.05 210.969 335.369 210.969C335.611 210.969 335.831 210.951 336.03 210.915C336.236 210.88 336.392 210.848 336.498 210.819L337.148 213.834C336.942 213.905 336.648 213.984 336.264 214.069C335.888 214.154 335.426 214.204 334.879 214.218C333.913 214.246 333.043 214.101 332.269 213.781C331.495 213.454 330.881 212.95 330.426 212.268C329.979 211.587 329.758 210.734 329.765 209.712L329.765 193.71ZM350.205 207.112L350.205 197.631L354.062 197.631L354.062 213.994L350.322 213.994L350.322 211.086L350.152 211.086C349.782 212.002 349.175 212.751 348.33 213.334C347.492 213.916 346.459 214.207 345.23 214.207C344.157 214.207 343.209 213.969 342.385 213.493C341.569 213.011 340.929 212.311 340.468 211.395C340.006 210.471 339.775 209.356 339.775 208.05L339.775 197.631L343.632 197.631L343.632 207.453C343.632 208.49 343.916 209.314 344.484 209.925C345.052 210.535 345.798 210.841 346.721 210.841C347.29 210.841 347.84 210.702 348.373 210.425C348.905 210.148 349.342 209.736 349.683 209.189C350.031 208.636 350.205 207.943 350.205 207.112ZM365.898 197.631L365.898 200.614L356.491 200.614L356.491 197.631L365.898 197.631ZM358.814 193.71L362.67 193.71L362.67 209.072C362.67 209.591 362.749 209.989 362.905 210.265C363.068 210.535 363.281 210.72 363.544 210.819C363.807 210.919 364.098 210.969 364.418 210.969C364.659 210.969 364.879 210.951 365.078 210.915C365.284 210.88 365.44 210.848 365.547 210.819L366.197 213.834C365.991 213.905 365.696 213.984 365.312 214.069C364.936 214.154 364.474 214.204 363.928 214.218C362.962 214.246 362.092 214.101 361.317 213.781C360.543 213.454 359.929 212.95 359.474 212.268C359.027 211.587 358.807 210.734 358.814 209.712L358.814 193.71ZM375.892 214.314C374.252 214.314 372.835 213.973 371.642 213.291C370.455 212.602 369.543 211.629 368.904 210.372C368.264 209.108 367.945 207.62 367.945 205.908C367.945 204.225 368.264 202.748 368.904 201.476C369.55 200.198 370.452 199.204 371.61 198.493C372.767 197.776 374.127 197.417 375.69 197.417C376.698 197.417 377.65 197.581 378.545 197.908C379.447 198.227 380.242 198.724 380.931 199.399C381.627 200.074 382.174 200.933 382.572 201.977C382.97 203.014 383.169 204.25 383.169 205.685L383.169 206.867L369.756 206.867L369.756 204.268L379.472 204.268C379.465 203.529 379.305 202.872 378.992 202.297C378.68 201.714 378.243 201.256 377.682 200.922C377.128 200.589 376.482 200.422 375.743 200.422C374.955 200.422 374.262 200.614 373.666 200.997C373.069 201.373 372.604 201.871 372.27 202.489C371.943 203.099 371.777 203.77 371.769 204.502L371.769 206.771C371.769 207.723 371.943 208.54 372.291 209.221C372.639 209.896 373.126 210.415 373.751 210.777C374.376 211.132 375.107 211.31 375.946 211.31C376.507 211.31 377.014 211.231 377.469 211.075C377.924 210.912 378.318 210.674 378.652 210.361C378.985 210.049 379.237 209.662 379.408 209.2L383.009 209.605C382.781 210.557 382.348 211.388 381.709 212.098C381.077 212.801 380.267 213.348 379.28 213.739C378.293 214.122 377.164 214.314 375.892 214.314ZM400.41 214.314C398.812 214.314 397.427 213.962 396.256 213.259C395.084 212.556 394.175 211.572 393.528 210.308C392.889 209.044 392.569 207.567 392.569 205.876C392.569 204.186 392.889 202.705 393.528 201.434C394.175 200.163 395.084 199.175 396.256 198.472C397.427 197.769 398.812 197.417 400.41 197.417C402.008 197.417 403.393 197.769 404.565 198.472C405.737 199.175 406.643 200.163 407.282 201.434C407.928 202.705 408.251 204.186 408.251 205.876C408.251 207.567 407.928 209.044 407.282 210.308C406.643 211.572 405.737 212.556 404.565 213.259C403.393 213.962 402.008 214.314 400.41 214.314ZM400.432 211.224C401.298 211.224 402.023 210.986 402.605 210.511C403.187 210.028 403.621 209.381 403.905 208.572C404.196 207.762 404.341 206.86 404.341 205.866C404.341 204.864 404.196 203.959 403.905 203.149C403.621 202.332 403.187 201.682 402.605 201.199C402.023 200.716 401.298 200.475 400.432 200.475C399.544 200.475 398.805 200.716 398.216 201.199C397.633 201.682 397.197 202.332 396.905 203.149C396.621 203.959 396.479 204.864 396.479 205.866C396.479 206.86 396.621 207.762 396.905 208.572C397.197 209.381 397.633 210.028 398.216 210.511C398.805 210.986 399.544 211.224 400.432 211.224ZM419.513 197.631L419.513 200.614L409.84 200.614L409.84 197.631L419.513 197.631ZM412.258 213.994L412.258 196.086C412.258 194.985 412.485 194.069 412.94 193.337C413.401 192.606 414.019 192.059 414.793 191.697C415.568 191.334 416.427 191.153 417.372 191.153C418.039 191.153 418.632 191.207 419.151 191.313C419.669 191.42 420.053 191.515 420.301 191.601L419.534 194.584C419.371 194.534 419.165 194.484 418.916 194.435C418.668 194.378 418.391 194.349 418.085 194.349C417.368 194.349 416.86 194.523 416.562 194.871C416.271 195.212 416.125 195.702 416.125 196.341L416.125 213.994L412.258 213.994ZM275.545 283.994L268.152 283.994L268.152 262.176L275.695 262.176C277.861 262.176 279.722 262.613 281.277 263.486C282.84 264.353 284.04 265.599 284.878 267.226C285.716 268.852 286.135 270.798 286.135 273.064C286.135 275.337 285.712 277.29 284.867 278.923C284.029 280.557 282.818 281.81 281.234 282.684C279.658 283.557 277.761 283.994 275.545 283.994ZM272.104 280.574L275.354 280.574C276.874 280.574 278.141 280.297 279.157 279.743C280.173 279.182 280.936 278.348 281.447 277.24C281.959 276.125 282.215 274.733 282.215 273.064C282.215 271.395 281.959 270.01 281.447 268.909C280.936 267.801 280.18 266.974 279.178 266.427C278.184 265.873 276.948 265.596 275.471 265.596L272.104 265.596L272.104 280.574ZM289.42 283.994L289.42 267.631L293.276 267.631L293.276 283.994L289.42 283.994ZM291.359 265.308C290.748 265.308 290.222 265.106 289.782 264.701C289.342 264.289 289.122 263.795 289.122 263.22C289.122 262.638 289.342 262.144 289.782 261.739C290.222 261.327 290.748 261.121 291.359 261.121C291.977 261.121 292.502 261.327 292.935 261.739C293.376 262.144 293.596 262.638 293.596 263.22C293.596 263.795 293.376 264.289 292.935 264.701C292.502 265.106 291.977 265.308 291.359 265.308ZM304.059 290.471C302.674 290.471 301.484 290.283 300.49 289.907C299.495 289.538 298.696 289.04 298.093 288.415C297.489 287.79 297.07 287.098 296.836 286.338L300.309 285.496C300.465 285.816 300.692 286.132 300.99 286.444C301.289 286.764 301.69 287.027 302.194 287.233C302.706 287.446 303.348 287.552 304.122 287.552C305.216 287.552 306.122 287.286 306.839 286.753C307.556 286.228 307.915 285.361 307.915 284.154L307.915 281.054L307.723 281.054C307.524 281.452 307.233 281.86 306.85 282.279C306.473 282.698 305.973 283.05 305.348 283.334C304.73 283.618 303.952 283.76 303.015 283.76C301.757 283.76 300.618 283.465 299.595 282.876C298.579 282.279 297.77 281.391 297.166 280.212C296.569 279.026 296.271 277.542 296.271 275.759C296.271 273.962 296.569 272.446 297.166 271.21C297.77 269.967 298.583 269.026 299.605 268.387C300.628 267.741 301.768 267.417 303.025 267.417C303.984 267.417 304.772 267.581 305.39 267.908C306.015 268.227 306.512 268.614 306.882 269.069C307.251 269.516 307.532 269.939 307.723 270.337L307.936 270.337L307.936 267.631L311.74 267.631L311.74 284.261C311.74 285.66 311.406 286.817 310.738 287.734C310.071 288.65 309.158 289.335 308 289.79C306.843 290.244 305.529 290.471 304.059 290.471ZM304.091 280.734C304.907 280.734 305.603 280.535 306.179 280.138C306.754 279.74 307.191 279.168 307.489 278.422C307.787 277.677 307.936 276.782 307.936 275.738C307.936 274.708 307.787 273.806 307.489 273.032C307.198 272.258 306.765 271.658 306.189 271.231C305.621 270.798 304.921 270.582 304.091 270.582C303.231 270.582 302.514 270.805 301.939 271.253C301.363 271.7 300.93 272.314 300.639 273.096C300.348 273.87 300.202 274.751 300.202 275.738C300.202 276.739 300.348 277.616 300.639 278.369C300.937 279.115 301.374 279.697 301.949 280.116C302.532 280.528 303.245 280.734 304.091 280.734ZM315.392 283.994L315.392 267.631L319.249 267.631L319.249 283.994L315.392 283.994ZM317.331 265.308C316.72 265.308 316.195 265.106 315.754 264.701C315.314 264.289 315.094 263.795 315.094 263.22C315.094 262.638 315.314 262.144 315.754 261.739C316.195 261.327 316.72 261.121 317.331 261.121C317.949 261.121 318.474 261.327 318.908 261.739C319.348 262.144 319.568 262.638 319.568 263.22C319.568 263.795 319.348 264.289 318.908 264.701C318.474 265.106 317.949 265.308 317.331 265.308ZM331.086 267.631L331.086 270.614L321.679 270.614L321.679 267.631L331.086 267.631ZM324.001 263.71L327.858 263.71L327.858 279.072C327.858 279.591 327.936 279.989 328.092 280.265C328.255 280.535 328.468 280.72 328.731 280.819C328.994 280.919 329.285 280.969 329.605 280.969C329.846 280.969 330.066 280.951 330.265 280.915C330.471 280.88 330.627 280.848 330.734 280.819L331.384 283.834C331.178 283.905 330.883 283.984 330.5 284.069C330.123 284.154 329.662 284.204 329.115 284.218C328.149 284.246 327.279 284.101 326.505 283.781C325.73 283.454 325.116 282.95 324.662 282.268C324.214 281.587 323.994 280.734 324.001 279.712L324.001 263.71ZM338.72 284.324C337.683 284.324 336.749 284.14 335.918 283.77C335.094 283.394 334.441 282.84 333.958 282.109C333.482 281.377 333.244 280.475 333.244 279.403C333.244 278.479 333.414 277.716 333.755 277.112C334.096 276.508 334.561 276.025 335.151 275.663C335.74 275.301 336.404 275.028 337.143 274.843C337.889 274.651 338.659 274.513 339.455 274.427C340.414 274.328 341.191 274.239 341.788 274.161C342.384 274.076 342.818 273.948 343.088 273.778C343.365 273.6 343.503 273.327 343.503 272.957L343.503 272.893C343.503 272.091 343.265 271.469 342.789 271.029C342.313 270.589 341.628 270.368 340.733 270.368C339.789 270.368 339.039 270.574 338.485 270.986C337.938 271.398 337.569 271.885 337.377 272.446L333.776 271.935C334.061 270.94 334.529 270.109 335.183 269.442C335.836 268.767 336.635 268.263 337.58 267.929C338.524 267.588 339.568 267.417 340.712 267.417C341.5 267.417 342.285 267.51 343.066 267.694C343.847 267.879 344.561 268.185 345.208 268.611C345.854 269.03 346.372 269.601 346.763 270.326C347.161 271.05 347.36 271.956 347.36 273.042L347.36 283.994L343.652 283.994L343.652 281.746L343.524 281.746C343.29 282.201 342.96 282.627 342.534 283.025C342.115 283.415 341.585 283.731 340.946 283.973C340.314 284.207 339.572 284.324 338.72 284.324ZM339.721 281.491C340.495 281.491 341.166 281.338 341.735 281.033C342.303 280.72 342.74 280.308 343.045 279.797C343.357 279.285 343.514 278.728 343.514 278.124L343.514 276.196C343.393 276.295 343.187 276.388 342.896 276.473C342.612 276.558 342.292 276.633 341.937 276.697C341.582 276.761 341.23 276.817 340.882 276.867C340.534 276.917 340.232 276.959 339.977 276.995C339.401 277.073 338.887 277.201 338.432 277.378C337.977 277.556 337.619 277.805 337.356 278.124C337.093 278.437 336.962 278.841 336.962 279.339C336.962 280.049 337.221 280.585 337.74 280.947C338.258 281.31 338.919 281.491 339.721 281.491ZM354.794 262.176L354.794 283.994L350.937 283.994L350.937 262.176L354.794 262.176ZM365.772 283.994L365.772 262.176L373.953 262.176C375.629 262.176 377.036 262.467 378.172 263.05C379.316 263.632 380.178 264.449 380.761 265.5C381.35 266.544 381.645 267.762 381.645 269.154C381.645 270.553 381.347 271.768 380.75 272.797C380.161 273.82 379.291 274.612 378.14 275.173C376.99 275.727 375.576 276.004 373.9 276.004L368.073 276.004L368.073 272.723L373.367 272.723C374.348 272.723 375.15 272.588 375.775 272.318C376.4 272.041 376.862 271.64 377.16 271.114C377.465 270.582 377.618 269.928 377.618 269.154C377.618 268.38 377.465 267.719 377.16 267.172C376.855 266.618 376.389 266.199 375.764 265.915C375.139 265.624 374.333 265.479 373.346 265.479L369.724 265.479L369.724 283.994L365.772 283.994ZM377.043 274.108L382.444 283.994L378.034 283.994L372.728 274.108L377.043 274.108ZM384.813 283.994L384.813 267.631L388.669 267.631L388.669 283.994L384.813 283.994ZM386.752 265.308C386.141 265.308 385.615 265.106 385.175 264.701C384.735 264.289 384.515 263.795 384.515 263.22C384.515 262.638 384.735 262.144 385.175 261.739C385.615 261.327 386.141 261.121 386.752 261.121C387.37 261.121 387.895 261.327 388.328 261.739C388.769 262.144 388.989 262.638 388.989 263.22C388.989 263.795 388.769 264.289 388.328 264.701C387.895 265.106 387.37 265.308 386.752 265.308ZM405.268 271.956L401.753 272.339C401.653 271.984 401.479 271.65 401.231 271.338C400.989 271.025 400.662 270.773 400.251 270.582C399.839 270.39 399.334 270.294 398.738 270.294C397.935 270.294 397.26 270.468 396.714 270.816C396.174 271.164 395.908 271.615 395.915 272.169C395.908 272.645 396.082 273.032 396.437 273.33C396.799 273.628 397.395 273.873 398.226 274.065L401.018 274.662C402.566 274.996 403.716 275.525 404.469 276.249C405.229 276.974 405.613 277.922 405.62 279.094C405.613 280.123 405.311 281.033 404.714 281.821C404.125 282.602 403.305 283.213 402.253 283.653C401.202 284.094 399.995 284.314 398.631 284.314C396.628 284.314 395.016 283.895 393.795 283.057C392.573 282.212 391.845 281.036 391.611 279.53L395.371 279.168C395.542 279.907 395.904 280.464 396.458 280.841C397.012 281.217 397.733 281.405 398.621 281.405C399.537 281.405 400.272 281.217 400.826 280.841C401.387 280.464 401.667 279.999 401.667 279.445C401.667 278.976 401.486 278.589 401.124 278.284C400.769 277.979 400.215 277.744 399.462 277.581L396.671 276.995C395.101 276.668 393.94 276.118 393.187 275.344C392.434 274.562 392.062 273.575 392.069 272.382C392.062 271.373 392.335 270.5 392.889 269.761C393.45 269.015 394.228 268.44 395.222 268.035C396.224 267.623 397.378 267.417 398.684 267.417C400.602 267.417 402.111 267.826 403.212 268.643C404.32 269.459 405.006 270.564 405.268 271.956ZM412.016 278.859L412.005 274.204L412.623 274.204L418.503 267.631L423.01 267.631L415.776 275.685L414.977 275.685L412.016 278.859ZM408.5 283.994L408.5 262.176L412.356 262.176L412.356 283.994L408.5 283.994ZM418.77 283.994L413.443 276.547L416.043 273.831L423.383 283.994L418.77 283.994Z" fill="#111111"/>
</g>
<defs>
<filter id="filter0_d_1_2" x="0" y="0" width="521.741" height="521.741" filterUnits="userSpaceOnUse" color-interpolation-filters="sRGB">
<feFlood flood-opacity="0" result="BackgroundImageFix"/>
<feColorMatrix in="SourceAlpha" type="matrix" values="0 0 0 0 0 0 0 0 0 0 0 0 0 0 0 0 0 0 127 0" result="hardAlpha"/>
<feOffset dy="4"/>
<feGaussianBlur stdDeviation="2"/>
<feComposite in2="hardAlpha" operator="out"/>
<feColorMatrix type="matrix" values="0 0 0 0 0 0 0 0 0 0 0 0 0 0 0 0 0 0 0.25 0"/>
<feBlend mode="normal" in2="BackgroundImageFix" result="effect1_dropShadow_1_2"/>
<feBlend mode="normal" in="SourceGraphic" in2="effect1_dropShadow_1_2" result="shape"/>
</filter>
</defs>
</svg>
